<svg width="58" height="14" viewBox="0 0 58 14" fill="none" xmlns="http://www.w3.org/2000/svg">
<g id="Sub Container">
<path id="Vector" d="M53.6979 6.37312C51.8589 7.87497 50.0883 9.30877 48.3244 10.7481C47.9714 11.0336 47.7226 11.2354 47.339 11.6661C47.0508 11.9829 46.454 12.6681 46.859 12.9049C47.214 13.0655 47.4866 13.1344 48.1486 12.6976C49.8523 11.561 51.3734 10.1803 52.89 8.81866C54.2284 7.61532 55.2307 6.67731 56.352 5.5428C56.8756 5.01292 56.7854 4.54985 56.2075 4.17961C55.6887 3.84751 55.1621 3.4975 54.5905 3.26926C52.5339 2.43507 50.4638 1.65787 48.3915 0.85607C48.1347 0.754872 47.9404 0.660522 47.6176 0.583772C47.2255 0.494568 46.9452 0.407852 46.7843 0.763022C46.6279 1.09919 47.0405 1.42211 47.2804 1.54339C49.2637 2.60102 53.3911 4.71441 53.5851 4.87696C52.2882 5.28324 51.0965 5.68641 49.8803 6.02355C41.3999 8.33112 32.8275 10.0146 23.9629 9.64141C16.9459 9.34615 10.0857 8.22502 3.40531 6.04665C3.00998 5.92054 2.59889 5.82683 2.20118 5.74432C1.66386 5.6246 1.36305 5.65747 1.28173 5.9312C1.1985 6.46543 1.54227 6.63949 1.80447 6.80219C2.32326 7.13429 2.91951 7.36035 3.49677 7.5819C11.2492 10.4648 19.3082 11.4734 27.5346 11.4259C35.978 11.3778 44.0638 9.44617 52.0142 6.8199C52.4282 6.66543 53.4877 6.37936 53.6979 6.37312Z" fill="#7E8285"/>
</g>
</svg>
