<svg width="16" height="13" viewBox="0 0 16 13" fill="none" xmlns="http://www.w3.org/2000/svg">
<g id="SVG" clip-path="url(#clip0_237_185)">
<path id="Vector" d="M15.3268 2.03067C15.6997 1.85017 15.8555 1.40161 15.675 1.0288C15.4945 0.655989 15.046 0.500094 14.6732 0.680602L15.3268 2.03067ZM4.7208 11.6444L4.07652 12.0283C4.21511 12.2609 4.46827 12.4007 4.73891 12.3942C5.00956 12.3876 5.25567 12.2357 5.38287 11.9968L4.7208 11.6444ZM1.48391 6.70356C1.16743 6.43632 0.694236 6.47622 0.426994 6.7927C0.159751 7.10917 0.199659 7.58236 0.51613 7.8496L1.48391 6.70356ZM14.6732 0.680602C9.03396 3.41098 5.6172 8.36392 4.05874 11.292L5.38287 11.9968C6.86946 9.20371 10.0933 4.56463 15.3268 2.03067L14.6732 0.680602ZM5.36508 11.2604C4.34475 9.54829 3.05141 8.02723 1.48391 6.70356L0.51613 7.8496C1.95928 9.06826 3.14327 10.4623 4.07652 12.0283L5.36508 11.2604Z" fill="#7E8285"/>
</g>
<defs>
<clipPath id="clip0_237_185">
<rect width="16" height="12" fill="white" transform="translate(0 0.5)"/>
</clipPath>
</defs>
</svg>
