<svg width="19" height="19" viewBox="0 0 19 19" fill="none" xmlns="http://www.w3.org/2000/svg">
<g id="SVG">
<g id="Vector">
<path d="M12.6011 6.92943L12.0799 7.39676C12.3287 7.67422 12.7513 7.7081 13.0411 7.47383L12.6011 6.92943ZM6.39931 6.92943L5.95928 7.47383C6.24911 7.7081 6.67167 7.67422 6.92047 7.39676L6.39931 6.92943ZM16.243 4.97673L16.9325 5.09792L16.9327 5.09667L16.243 4.97673ZM15.0888 4.01323C13.8281 5.03449 12.3015 6.27151 12.161 6.38503L13.0411 7.47383C13.1823 7.35968 14.7103 6.12154 15.97 5.10108L15.0888 4.01323ZM13.1222 6.46211C12.9842 6.30819 11.1244 4.21658 10.3536 3.34928L9.30719 4.27934C10.076 5.14436 11.9392 7.23982 12.0799 7.39676L13.1222 6.46211ZM10.3536 3.34928C9.89938 2.83843 9.10123 2.83828 8.64693 3.34913L9.693 4.27958C9.59042 4.39493 9.40977 4.39469 9.30719 4.27934L10.3536 3.34928ZM8.64693 3.34913C7.87481 4.21703 6.01631 6.30803 5.87815 6.46211L6.92047 7.39676C7.06106 7.23998 8.92398 5.14401 9.693 4.27958L8.64693 3.34913ZM6.83934 6.38503C6.6989 6.27151 5.17231 5.03449 3.91161 4.01323L3.02991 5.1007C4.28963 6.12116 5.81805 7.35968 5.95928 7.47383L6.83934 6.38503ZM3.91161 4.01323C3.09089 3.34722 1.88493 4.05852 2.06794 5.0981L3.44677 4.85555C3.48821 5.09099 3.21578 5.25154 3.02991 5.1007L3.91161 4.01323ZM2.06794 5.0981C2.25098 6.13945 2.64684 8.83492 2.90883 10.6447L4.29441 10.4443C4.03393 8.64491 3.63441 5.92306 3.44677 4.85555L2.06794 5.0981ZM2.90883 10.6447C3.10252 11.9848 4.25092 12.9746 5.60247 12.9746V11.5746C4.9444 11.5746 4.38823 11.0934 4.29441 10.4443L2.90883 10.6447ZM5.60247 12.9746H13.3979V11.5746H5.60247V12.9746ZM13.3979 12.9746C14.7495 12.9746 15.8979 11.9847 16.0916 10.6446L14.706 10.4441C14.6121 11.0932 14.056 11.5746 13.3979 11.5746V12.9746ZM16.0916 10.6446C16.3536 8.83482 16.7494 6.13927 16.9325 5.09792L15.5536 4.85555C15.366 5.92306 14.9665 8.64476 14.706 10.4441L16.0916 10.6446ZM16.9327 5.09667C17.1131 4.05905 15.9107 3.34626 15.0888 4.01323L15.97 5.10108C15.7829 5.25288 15.513 5.08882 15.5534 4.8568L16.9327 5.09667Z" fill="white"/>
<path d="M4.50014 14.6359C4.11354 14.6359 3.80014 14.9493 3.80014 15.3359C3.80014 15.7225 4.11354 16.0359 4.50014 16.0359V14.6359ZM14.4978 16.0359C14.8844 16.0359 15.1978 15.7225 15.1978 15.3359C15.1978 14.9493 14.8844 14.6359 14.4978 14.6359V16.0359ZM4.50014 16.0359H14.4978V14.6359H4.50014V16.0359Z" fill="white"/>
</g>
</g>
</svg>
