<svg width="28" height="28" viewBox="0 0 28 28" fill="none" xmlns="http://www.w3.org/2000/svg">
<path d="M22.4815 6.21835C20.9298 5.49501 19.2498 4.97001 17.4998 4.66668C17.4845 4.66619 17.4692 4.66907 17.4551 4.67512C17.441 4.68116 17.4284 4.69023 17.4181 4.70168C17.2081 5.08668 16.9631 5.58835 16.7998 5.97335C14.9436 5.69335 13.056 5.69335 11.1998 5.97335C11.0365 5.57668 10.7915 5.08668 10.5698 4.70168C10.5581 4.67835 10.5231 4.66668 10.4881 4.66668C8.73814 4.97001 7.06981 5.49501 5.50648 6.21835C5.49481 6.21835 5.48314 6.23001 5.47148 6.24168C2.29814 10.99 1.42314 15.61 1.85481 20.1833C1.85481 20.2067 1.86648 20.23 1.88981 20.2417C3.98981 21.7817 6.00814 22.715 8.00315 23.3333C8.03815 23.345 8.07314 23.3333 8.08481 23.31C8.55148 22.6683 8.97148 21.9917 9.33315 21.28C9.35648 21.2333 9.33315 21.1867 9.28648 21.175C8.62148 20.9183 7.99148 20.615 7.37315 20.265C7.32648 20.2417 7.32648 20.1717 7.36148 20.1367C7.48981 20.0433 7.61814 19.9383 7.74648 19.845C7.76981 19.8217 7.80481 19.8217 7.82815 19.8333C11.8415 21.665 16.1698 21.665 20.1365 19.8333C20.1598 19.8217 20.1948 19.8217 20.2181 19.845C20.3465 19.95 20.4748 20.0433 20.6031 20.1483C20.6498 20.1833 20.6498 20.2533 20.5915 20.2767C19.9848 20.6383 19.3431 20.93 18.6781 21.1867C18.6315 21.1983 18.6198 21.2567 18.6315 21.2917C19.0048 22.0033 19.4248 22.68 19.8798 23.3217C19.9148 23.3333 19.9498 23.345 19.9848 23.3333C21.9915 22.715 24.0098 21.7817 26.1098 20.2417C26.1331 20.23 26.1448 20.2067 26.1448 20.1833C26.6581 14.8983 25.2931 10.3133 22.5281 6.24168C22.5165 6.23001 22.5048 6.21835 22.4815 6.21835ZM9.93981 17.395C8.73815 17.395 7.73481 16.2867 7.73481 14.9217C7.73481 13.5567 8.71481 12.4483 9.93981 12.4483C11.1765 12.4483 12.1565 13.5683 12.1448 14.9217C12.1448 16.2867 11.1648 17.395 9.93981 17.395ZM18.0715 17.395C16.8698 17.395 15.8665 16.2867 15.8665 14.9217C15.8665 13.5567 16.8465 12.4483 18.0715 12.4483C19.3081 12.4483 20.2881 13.5683 20.2765 14.9217C20.2765 16.2867 19.3081 17.395 18.0715 17.395Z" fill="white"/>
</svg>
