<svg width="222" height="18" viewBox="0 0 222 18" fill="none" xmlns="http://www.w3.org/2000/svg">
<g id="Frame" clip-path="url(#clip0_111_10070)">
<path id="Vector" d="M22.4502 17.5V5.72021L16.2246 17.5H11.8789L5.65332 5.72021V17.5H1.12451V0.727539H7.27686L14.0518 13.4229L20.8267 0.727539H26.9546V17.5H22.4502ZM43.4585 17.5H38.1851L29.7012 0.727539H34.7549L40.8584 13.3496L46.9497 0.727539H52.0034L43.4585 17.5ZM75.3066 9.10156C75.3066 10.1758 75.1886 11.132 74.9526 11.9702C74.7166 12.8003 74.383 13.5246 73.9517 14.1431C73.5285 14.7616 73.0158 15.2865 72.4136 15.7178C71.8195 16.1491 71.1562 16.495 70.4238 16.7554C69.6914 17.0158 68.902 17.207 68.0557 17.3291C67.2093 17.443 66.3263 17.5 65.4067 17.5H54.7622V0.727539H65.3823C66.3019 0.727539 67.1849 0.788574 68.0312 0.910645C68.8776 1.02458 69.667 1.21175 70.3994 1.47217C71.14 1.73258 71.8114 2.07845 72.4136 2.50977C73.0158 2.93294 73.5285 3.45785 73.9517 4.08447C74.383 4.70296 74.7166 5.42725 74.9526 6.25732C75.1886 7.0874 75.3066 8.03548 75.3066 9.10156ZM70.7412 9.10156C70.7412 8.2959 70.6354 7.59603 70.4238 7.00195C70.2204 6.40788 69.8867 5.9196 69.4229 5.53711C68.9671 5.14648 68.369 4.85758 67.6284 4.67041C66.8879 4.4751 65.9845 4.37744 64.9185 4.37744H59.291V13.8501H64.9185C65.9845 13.8501 66.8879 13.7565 67.6284 13.5693C68.369 13.374 68.9671 13.0811 69.4229 12.6904C69.8867 12.2917 70.2204 11.7952 70.4238 11.2012C70.6354 10.6071 70.7412 9.90723 70.7412 9.10156ZM104.896 17.5V10.5054H93.373V17.5H88.8442V0.727539H93.373V6.83105H104.896V0.727539H109.425V17.5H104.896ZM114.674 17.5V0.727539H131.654V4.3042H119.325V7.0752H131.02V10.6519H119.325V13.9233H131.825V17.5H114.674ZM136.208 17.5V0.727539H140.736V13.8257H152.98V17.5H136.208ZM175.465 6.45264C175.465 7.29085 175.343 8.06396 175.099 8.77197C174.855 9.47184 174.46 10.0781 173.915 10.5908C173.378 11.0954 172.678 11.4901 171.815 11.7749C170.953 12.0597 169.903 12.2021 168.666 12.2021H161.146V17.5H156.618V0.727539H168.666C169.903 0.727539 170.953 0.869954 171.815 1.15479C172.678 1.43148 173.378 1.82617 173.915 2.33887C174.46 2.84342 174.855 3.44564 175.099 4.14551C175.343 4.84538 175.465 5.61442 175.465 6.45264ZM170.888 6.52588C170.888 6.13525 170.831 5.8016 170.717 5.5249C170.611 5.24007 170.432 5.00814 170.18 4.8291C169.927 4.65007 169.598 4.51986 169.191 4.43848C168.784 4.34896 168.284 4.3042 167.689 4.3042H161.146V8.62549H167.689C168.284 8.62549 168.784 8.59294 169.191 8.52783C169.598 8.45459 169.927 8.33659 170.18 8.17383C170.432 8.00293 170.611 7.7832 170.717 7.51465C170.831 7.24609 170.888 6.9165 170.888 6.52588ZM179.225 17.5V0.727539H196.205V4.3042H183.876V7.0752H195.57V10.6519H183.876V13.9233H196.376V17.5H179.225ZM205.287 17.5H200.758V0.727539H212.111C213.332 0.727539 214.365 0.853678 215.211 1.10596C216.066 1.35824 216.758 1.71631 217.287 2.18018C217.824 2.64404 218.21 3.20557 218.446 3.86475C218.69 4.51579 218.812 5.24414 218.812 6.0498C218.812 6.75781 218.711 7.3763 218.507 7.90527C218.312 8.43424 218.043 8.88997 217.702 9.27246C217.368 9.64681 216.977 9.96419 216.53 10.2246C216.082 10.485 215.61 10.7007 215.114 10.8716L220.607 17.5H215.309L210.231 11.3232H205.287V17.5ZM214.235 6.02539C214.235 5.69987 214.19 5.42318 214.101 5.19531C214.019 4.96745 213.873 4.78434 213.661 4.646C213.45 4.49951 213.165 4.39372 212.807 4.32861C212.457 4.26351 212.017 4.23096 211.488 4.23096H205.287V7.81982H211.488C212.017 7.81982 212.457 7.78727 212.807 7.72217C213.165 7.65706 213.45 7.55534 213.661 7.41699C213.873 7.27051 214.019 7.08333 214.101 6.85547C214.19 6.6276 214.235 6.35091 214.235 6.02539Z" fill="white"/>
</g>
<defs>
<clipPath id="clip0_111_10070">
<rect width="221" height="17" fill="white" transform="translate(0.5 0.5)"/>
</clipPath>
</defs>
</svg>
