<svg width="28" height="28" viewBox="0 0 28 28" fill="none" xmlns="http://www.w3.org/2000/svg">
<path fill-rule="evenodd" clip-rule="evenodd" d="M5.33887 5.33791C7.63383 3.04142 10.7518 1.75 14 1.75C17.2482 1.75 20.3662 3.04142 22.6611 5.33791C24.958 7.6344 26.25 10.7524 26.25 14C26.25 17.2476 24.958 20.3656 22.6611 22.6621C20.3662 24.9586 17.2482 26.25 14 26.25C10.7518 26.25 7.63383 24.9586 5.33887 22.6621C3.04199 20.3656 1.75 17.2476 1.75 14C1.75 10.7524 3.04199 7.6344 5.33887 5.33791ZM14.4383 10.7935C13.2478 11.2891 10.8667 12.3148 7.29509 13.8706C6.71513 14.1012 6.41074 14.3269 6.38394 14.5474C6.33682 14.9199 6.80332 15.0668 7.43719 15.2664C7.52414 15.2938 7.61424 15.3222 7.70659 15.3522C8.33249 15.5555 9.17462 15.7934 9.61103 15.8028C10.0092 15.8114 10.4513 15.6478 10.9394 15.3121C14.2775 13.0598 15.9982 11.9213 16.1073 11.8968C16.1839 11.8796 16.2892 11.8577 16.3601 11.9215C16.4328 11.985 16.4251 12.1056 16.4174 12.138C16.3723 12.3347 14.5467 14.032 13.5968 14.9153C13.2981 15.1929 13.086 15.3901 13.043 15.4349C12.9468 15.5348 12.8488 15.6293 12.7546 15.7201C12.1737 16.2801 11.738 16.7001 12.7789 17.3859C13.2836 17.7184 13.6864 17.9928 14.089 18.267C14.5216 18.5617 14.954 18.8562 15.5121 19.2223C15.6556 19.3163 15.7926 19.414 15.9261 19.5092C16.4335 19.8709 16.8892 20.1958 17.453 20.1439C17.7803 20.1139 18.1191 19.8061 18.2894 18.8881C18.6952 16.7185 19.4934 12.018 19.6771 10.0809C19.6944 9.91133 19.6733 9.69409 19.658 9.59877C19.6408 9.50345 19.6063 9.36755 19.4838 9.26706C19.3364 9.14781 19.1105 9.12274 19.0091 9.12446C18.5478 9.13269 17.8415 9.37846 14.4383 10.7935Z" fill="white"/>
</svg>
