<svg width="108" height="18" viewBox="0 0 108 18" fill="none" xmlns="http://www.w3.org/2000/svg">
<g id="Frame 6" opacity="0.5">
<g id="Vector">
<path d="M0.951804 7.27655V0H3.71179C4.49326 0 5.19658 0.155926 5.82175 0.467778C6.44692 0.77963 6.93356 1.21276 7.28166 1.76716C7.63687 2.31463 7.81448 2.93834 7.81448 3.63827C7.81448 4.33821 7.63687 4.96538 7.28166 5.51978C6.93356 6.06725 6.44692 6.49692 5.82175 6.80877C5.19658 7.12062 4.49326 7.27655 3.71179 7.27655H0.951804ZM3.71179 6.44494C4.30855 6.44494 4.84847 6.32713 5.33156 6.09151C5.82175 5.85589 6.20537 5.52671 6.48244 5.10398C6.76661 4.67431 6.90869 4.18575 6.90869 3.63827C6.90869 3.0908 6.76661 2.6057 6.48244 2.18296C6.20537 1.7533 5.82175 1.42066 5.33156 1.18504C4.84847 0.949416 4.30855 0.831606 3.71179 0.831606H1.85759V6.44494H3.71179Z" fill="white"/>
<path d="M11.8752 7.3805C11.3708 7.3805 10.9019 7.26269 10.4686 7.02706C10.0423 6.79144 9.69776 6.4692 9.43491 6.06032C9.17916 5.64452 9.05128 5.18367 9.05128 4.67778C9.05128 4.16496 9.17916 3.70411 9.43491 3.29524C9.69776 2.87943 10.0494 2.55719 10.4899 2.3285C10.9374 2.09287 11.4276 1.97506 11.9605 1.97506C12.4862 1.97506 12.9586 2.08248 13.3777 2.29731C13.804 2.51214 14.1379 2.81013 14.3794 3.19129C14.621 3.57244 14.7418 4.0021 14.7418 4.48027C14.7418 4.60501 14.7347 4.71936 14.7204 4.82331C14.7133 4.92726 14.7027 5.00696 14.6885 5.0624H9.90379C9.95352 5.36039 10.0743 5.6272 10.2661 5.86282C10.4579 6.09844 10.6924 6.28208 10.9694 6.41376C11.2536 6.5385 11.5555 6.60087 11.8752 6.60087C12.3228 6.60087 12.6851 6.53157 12.9622 6.39297C13.2463 6.24743 13.4737 6.05686 13.6442 5.82124H14.5606C14.4185 6.11923 14.2267 6.38604 13.9852 6.62166C13.7507 6.85035 13.4559 7.03399 13.1007 7.1726C12.7455 7.3112 12.337 7.3805 11.8752 7.3805ZM13.8893 4.28277C13.875 3.99864 13.7791 3.74222 13.6015 3.51353C13.431 3.27791 13.2001 3.09426 12.9089 2.96259C12.6247 2.82399 12.3086 2.75469 11.9605 2.75469C11.5981 2.75469 11.2713 2.82053 10.9801 2.9522C10.6888 3.07694 10.4508 3.25712 10.2661 3.49274C10.0814 3.72143 9.96062 3.98478 9.90379 4.28277H13.8893Z" fill="white"/>
<path d="M18.2266 7.3805C17.6938 7.3805 17.2427 7.3112 16.8733 7.1726C16.5039 7.03399 16.2268 6.84342 16.0421 6.60087C15.8574 6.35139 15.765 6.07418 15.765 5.76926H16.6175C16.6175 5.93558 16.6779 6.08111 16.7987 6.20585C16.9266 6.3306 17.1113 6.42762 17.3528 6.49692C17.5944 6.56622 17.8856 6.60087 18.2266 6.60087C18.7168 6.60087 19.0791 6.53503 19.3136 6.40336C19.5551 6.26476 19.6759 6.08458 19.6759 5.86282C19.6759 5.65492 19.5906 5.49552 19.4201 5.38464C19.2567 5.26683 18.9868 5.18021 18.6103 5.12477L17.5766 4.96884C17.0296 4.88568 16.6104 4.72629 16.3191 4.49067C16.0279 4.24812 15.8822 3.91547 15.8822 3.49274C15.8822 3.20168 15.9639 2.9418 16.1273 2.71311C16.2907 2.48442 16.5394 2.30424 16.8733 2.17257C17.2072 2.0409 17.6228 1.97506 18.1201 1.97506C18.5889 1.97506 19.001 2.04436 19.3562 2.18296C19.7114 2.32156 19.9849 2.51561 20.1767 2.76509C20.3686 3.00764 20.4645 3.28138 20.4645 3.5863H19.612C19.612 3.43384 19.548 3.29524 19.4201 3.1705C19.2994 3.04575 19.1253 2.94527 18.898 2.86904C18.6777 2.79281 18.4184 2.75469 18.1201 2.75469C17.6583 2.75469 17.3102 2.82053 17.0757 2.9522C16.8484 3.07694 16.7347 3.25712 16.7347 3.49274C16.7347 3.67985 16.8129 3.82538 16.9692 3.92933C17.1326 4.03329 17.3883 4.11298 17.7364 4.16842L18.7808 4.32435C19.3562 4.40751 19.7896 4.57383 20.0808 4.82331C20.3792 5.07279 20.5284 5.41929 20.5284 5.86282C20.5284 6.15388 20.4467 6.41376 20.2833 6.64245C20.1199 6.86421 19.8642 7.04439 19.516 7.18299C19.175 7.31466 18.7452 7.3805 18.2266 7.3805Z" fill="white"/>
<path d="M21.9826 7.27655V2.07901H22.8351V7.27655H21.9826ZM21.9293 1.01872V0.0831607H22.8884V1.01872H21.9293Z" fill="white"/>
<path d="M27.228 9.45951C26.681 9.45951 26.2156 9.37635 25.832 9.21003C25.4555 9.05064 25.1642 8.8358 24.9582 8.56553C24.7522 8.30219 24.6278 8.01113 24.5852 7.69235H25.491C25.5549 7.88639 25.6508 8.05618 25.7787 8.20171C25.9137 8.34724 26.0984 8.46158 26.3328 8.54474C26.5744 8.63483 26.8692 8.67988 27.2173 8.67988C27.7715 8.67988 28.2084 8.54474 28.5281 8.27447C28.8477 8.01113 29.0076 7.64037 29.0076 7.1622V6.3098H28.9436C28.7305 6.5385 28.4535 6.72214 28.1125 6.86074C27.7715 6.99934 27.4091 7.06864 27.0255 7.06864C26.5495 7.06864 26.1055 6.96123 25.6935 6.7464C25.2885 6.52464 24.9617 6.21971 24.7131 5.83163C24.4644 5.44355 24.3401 5.00696 24.3401 4.52185C24.3401 4.03675 24.4644 3.60016 24.7131 3.21208C24.9617 2.82399 25.2885 2.52254 25.6935 2.3077C26.1055 2.08594 26.5495 1.97506 27.0255 1.97506C27.4091 1.97506 27.7715 2.04436 28.1125 2.18296C28.4535 2.32156 28.7305 2.50521 28.9436 2.7339H29.0076L29.1142 2.07901H29.8601V7.1622C29.8601 7.61958 29.7535 8.02153 29.5404 8.36803C29.3344 8.71453 29.0325 8.98134 28.6346 9.16845C28.2368 9.36249 27.7679 9.45951 27.228 9.45951ZM27.1001 6.28901C27.4482 6.28901 27.7679 6.21625 28.0592 6.07072C28.3504 5.92519 28.5813 5.71729 28.7518 5.44701C28.9223 5.17674 29.0076 4.86836 29.0076 4.52185C29.0076 4.17535 28.9223 3.86696 28.7518 3.59669C28.5813 3.32642 28.3504 3.11852 28.0592 2.97299C27.7679 2.82746 27.4482 2.75469 27.1001 2.75469C26.752 2.75469 26.4323 2.82746 26.141 2.97299C25.8498 3.11852 25.6189 3.32642 25.4484 3.59669C25.2779 3.86696 25.1926 4.17535 25.1926 4.52185C25.1926 4.86836 25.2779 5.17674 25.4484 5.44701C25.6189 5.71729 25.8498 5.92519 26.141 6.07072C26.4323 6.21625 26.752 6.28901 27.1001 6.28901Z" fill="white"/>
<path d="M31.7311 7.27655V2.07901H32.4771L32.5836 2.65074H32.6476C32.8394 2.46363 33.088 2.30424 33.3935 2.17257C33.7061 2.0409 34.0577 1.97506 34.4485 1.97506C34.9316 1.97506 35.3578 2.07208 35.7272 2.26612C36.0967 2.45324 36.3844 2.72697 36.5904 3.08733C36.8035 3.4477 36.9101 3.87736 36.9101 4.37632V7.27655H36.0576V4.38672C36.0576 4.05408 35.983 3.76648 35.8338 3.52393C35.6917 3.27445 35.4928 3.08387 35.237 2.9522C34.9813 2.82053 34.6971 2.75469 34.3845 2.75469C34.0506 2.75469 33.7452 2.82399 33.4681 2.96259C33.1981 3.10119 32.9815 3.29524 32.8181 3.54472C32.6618 3.7942 32.5836 4.07487 32.5836 4.38672V7.27655H31.7311Z" fill="white"/>
<path d="M41.2417 7.3805C40.7373 7.3805 40.2684 7.26269 39.8351 7.02706C39.4088 6.79144 39.0643 6.4692 38.8014 6.06032C38.5457 5.64452 38.4178 5.18367 38.4178 4.67778C38.4178 4.16496 38.5457 3.70411 38.8014 3.29524C39.0643 2.87943 39.4159 2.55719 39.8564 2.3285C40.304 2.09287 40.7942 1.97506 41.327 1.97506C41.8527 1.97506 42.3251 2.08248 42.7443 2.29731C43.1705 2.51214 43.5044 2.81013 43.746 3.19129C43.9875 3.57244 44.1083 4.0021 44.1083 4.48027C44.1083 4.60501 44.1012 4.71936 44.087 4.82331C44.0799 4.92726 44.0692 5.00696 44.055 5.0624H39.2703C39.32 5.36039 39.4408 5.6272 39.6326 5.86282C39.8244 6.09844 40.0589 6.28208 40.3359 6.41376C40.6201 6.5385 40.922 6.60087 41.2417 6.60087C41.6893 6.60087 42.0516 6.53157 42.3287 6.39297C42.6128 6.24743 42.8402 6.05686 43.0107 5.82124H43.9271C43.785 6.11923 43.5932 6.38604 43.3517 6.62166C43.1172 6.85035 42.8224 7.03399 42.4672 7.1726C42.112 7.3112 41.7035 7.3805 41.2417 7.3805ZM43.2558 4.28277C43.2416 3.99864 43.1456 3.74222 42.968 3.51353C42.7975 3.27791 42.5667 3.09426 42.2754 2.96259C41.9912 2.82399 41.6751 2.75469 41.327 2.75469C40.9647 2.75469 40.6379 2.82053 40.3466 2.9522C40.0553 3.07694 39.8173 3.25712 39.6326 3.49274C39.4479 3.72143 39.3271 3.98478 39.2703 4.28277H43.2558Z" fill="white"/>
<path d="M47.9661 7.3805C47.483 7.3805 47.0319 7.26615 46.6128 7.03746C46.1936 6.80184 45.8597 6.47959 45.6111 6.07072C45.3624 5.65492 45.2381 5.1906 45.2381 4.67778C45.2381 4.16496 45.3624 3.70411 45.6111 3.29524C45.8597 2.87943 46.1936 2.55719 46.6128 2.3285C47.0319 2.09287 47.483 1.97506 47.9661 1.97506C48.3639 1.97506 48.7227 2.04783 49.0424 2.19336C49.3692 2.33196 49.6569 2.53293 49.9056 2.79627H49.9695V0H50.822V7.27655H50.0761L49.9695 6.55929H49.9056C49.6569 6.82263 49.3692 7.02706 49.0424 7.1726C48.7227 7.3112 48.3639 7.3805 47.9661 7.3805ZM48.03 6.60087C48.371 6.60087 48.6872 6.52117 48.9785 6.36178C49.2768 6.20239 49.5148 5.97716 49.6924 5.6861C49.8771 5.38811 49.9695 5.052 49.9695 4.67778C49.9695 4.30356 49.8771 3.97092 49.6924 3.67985C49.5148 3.38186 49.2768 3.15317 48.9785 2.99378C48.6872 2.83439 48.371 2.75469 48.03 2.75469C47.689 2.75469 47.3694 2.83439 47.071 2.99378C46.7797 3.15317 46.5417 3.38186 46.357 3.67985C46.1794 3.97092 46.0906 4.30356 46.0906 4.67778C46.0906 5.052 46.1794 5.38811 46.357 5.6861C46.5417 5.97716 46.7797 6.20239 47.071 6.36178C47.3694 6.52117 47.689 6.60087 48.03 6.60087Z" fill="white"/>
<path d="M58.6018 7.3805C58.204 7.3805 57.8416 7.3112 57.5149 7.1726C57.1952 7.02706 56.911 6.82263 56.6623 6.55929H56.5984L56.4918 7.27655H55.7459V0H56.5984V2.79627H56.6623C56.911 2.53293 57.1952 2.33196 57.5149 2.19336C57.8416 2.04783 58.204 1.97506 58.6018 1.97506C59.0849 1.97506 59.536 2.09287 59.9551 2.3285C60.3743 2.55719 60.7082 2.87943 60.9568 3.29524C61.2055 3.70411 61.3298 4.16496 61.3298 4.67778C61.3298 5.1906 61.2055 5.65492 60.9568 6.07072C60.7082 6.47959 60.3743 6.80184 59.9551 7.03746C59.536 7.26615 59.0849 7.3805 58.6018 7.3805ZM58.5379 6.60087C58.8789 6.60087 59.195 6.52117 59.4863 6.36178C59.7846 6.20239 60.0226 5.97716 60.2002 5.6861C60.385 5.38811 60.4773 5.052 60.4773 4.67778C60.4773 4.30356 60.385 3.97092 60.2002 3.67985C60.0226 3.38186 59.7846 3.15317 59.4863 2.99378C59.195 2.83439 58.8789 2.75469 58.5379 2.75469C58.1969 2.75469 57.8772 2.83439 57.5788 2.99378C57.2875 3.15317 57.0495 3.38186 56.8648 3.67985C56.6872 3.97092 56.5984 4.30356 56.5984 4.67778C56.5984 5.052 56.6872 5.38811 56.8648 5.6861C57.0495 5.97716 57.2875 6.20239 57.5788 6.36178C57.8772 6.52117 58.1969 6.60087 58.5379 6.60087Z" fill="white"/>
<path d="M62.5954 9.35556V8.57593H63.6504C63.7712 8.57593 63.8671 8.54821 63.9381 8.49277C64.0092 8.44426 64.066 8.37149 64.1086 8.27447L64.5029 7.32852L64.5455 7.94183L61.9347 2.07901H62.8831L64.7373 6.34099H64.9824L66.6874 2.07901H67.6359L64.9185 8.61751C64.8119 8.87392 64.6734 9.06103 64.5029 9.17884C64.3324 9.29665 64.0909 9.35556 63.7783 9.35556H62.5954Z" fill="white"/>
<path d="M4.13417 17.8512H2.24509L0 12.9537H1.86728L3.27682 16.3203L4.27222 13.7687H6.48099L7.57084 16.2281L8.95132 12.9537H10.637L8.42092 17.8512H6.69896L5.52918 14.9453H5.23855L4.13417 17.8512Z" fill="white"/>
<path d="M11.0859 12.9395H16.9348V14.0664H12.8006V14.8035H16.8404V15.9375H12.8006V16.7526H17.0147V17.9079H11.0859V12.9395Z" fill="white"/>
<path d="M20.8356 18C20.2834 18 19.7966 17.9575 19.3897 17.8724C18.9756 17.7874 18.6559 17.6881 18.4306 17.5677C18.2127 17.4472 18.031 17.2983 17.9002 17.1282C17.7695 16.9581 17.6823 16.8022 17.6459 16.6675C17.6096 16.5329 17.5951 16.384 17.5951 16.2281V16.1572H19.4042C19.4406 16.6817 19.8329 16.944 20.8937 16.944H21.2933C21.6421 16.944 21.7874 16.9227 22.0199 16.8943C22.2451 16.866 22.4122 16.8306 22.514 16.7739C22.6229 16.7172 22.6883 16.6675 22.7247 16.6108C22.761 16.5541 22.7755 16.4904 22.7755 16.4124C22.7755 16.3061 22.7465 16.221 22.6883 16.1572C22.6302 16.1005 22.4849 16.0438 22.2669 15.9942C22.049 15.9517 21.7365 15.9234 21.3224 15.9163L20.7775 15.9021L20.3706 15.895C18.5687 15.8525 17.6677 15.3634 17.6677 14.4421V14.3783C17.6677 14.2223 17.6895 14.0735 17.7331 13.9388C17.7767 13.8042 17.8639 13.6695 18.002 13.5278C18.1327 13.3931 18.3071 13.2797 18.5251 13.1876C18.7431 13.0954 19.0337 13.0175 19.4042 12.9608C19.7675 12.897 20.1962 12.8686 20.683 12.8686H21.1989C21.7002 12.8686 22.1507 12.897 22.5358 12.9608C22.9281 13.0245 23.2333 13.1025 23.4658 13.2017C23.6983 13.301 23.8872 13.4214 24.0325 13.5632C24.1778 13.7049 24.2795 13.8467 24.3304 13.9814C24.3885 14.1231 24.4176 14.272 24.4176 14.435V14.4988H22.6157C22.6011 14.4491 22.5866 14.3995 22.5721 14.3641C22.5575 14.3287 22.514 14.279 22.4486 14.2153C22.3832 14.1515 22.3032 14.1019 22.1943 14.0593C22.0925 14.0239 21.9327 13.9885 21.7293 13.953C21.5258 13.9247 21.366 13.9105 21.0899 13.9105H20.8356C20.4142 13.9105 20.1526 13.9317 19.9274 13.9743C19.7094 14.0239 19.5714 14.0735 19.5278 14.1231C19.4769 14.1727 19.4551 14.2436 19.4551 14.3357C19.4551 14.4208 19.4769 14.4846 19.535 14.5413C19.5859 14.5909 19.7094 14.6405 19.9056 14.6901C20.1017 14.7326 20.3778 14.7539 20.7339 14.761L21.1407 14.7681L21.6639 14.7752C22.7029 14.7893 23.444 14.9169 23.9017 15.1508C24.3667 15.3847 24.5919 15.7462 24.5919 16.2494V16.3415C24.5919 16.5258 24.5701 16.6888 24.5265 16.8306C24.483 16.9723 24.3885 17.1211 24.2505 17.2771C24.1124 17.4259 23.9308 17.5535 23.6983 17.6527C23.4658 17.759 23.1533 17.837 22.7537 17.9008C22.3541 17.9717 21.8818 18 21.3442 18H20.8356Z" fill="white"/>
<path d="M27.2966 17.9149V14.1302H24.9134V12.9537H31.438V14.1302H29.0476V17.9149H27.2966Z" fill="white"/>
<path d="M31.9535 12.9537H33.6827V16.6817H37.5408V17.9149H31.9535V12.9537Z" fill="white"/>
<path d="M44.9285 17.9079L44.4127 17.0007H39.8861L39.3848 17.9079H37.6192L40.4238 12.9395H43.8314L46.8031 17.9079H44.9285ZM42.7343 14.0806H41.4991L40.5037 15.8737H43.766L42.7343 14.0806Z" fill="white"/>
<path d="M47.2299 12.9537H49.1625L52.7009 16.0722V12.9537H54.4156V17.9149H52.7009L48.9373 14.6263V17.9149H47.2299V12.9537Z" fill="white"/>
<path d="M55.2973 12.9395H58.9738C59.4896 12.9395 59.9619 12.9678 60.376 13.0316C60.7974 13.0954 61.1462 13.1805 61.4223 13.301C61.7056 13.4214 61.9454 13.549 62.1416 13.6979C62.3378 13.8396 62.4903 14.0026 62.5993 14.1869C62.701 14.3712 62.781 14.5484 62.8246 14.7256C62.8754 14.9027 62.8972 15.087 62.8972 15.2855V15.491C62.8972 15.7249 62.8682 15.9446 62.8028 16.1502C62.7446 16.3628 62.6284 16.5754 62.454 16.7951C62.2724 17.0219 62.0471 17.2133 61.771 17.3692C61.4877 17.5251 61.1099 17.6527 60.6303 17.7519C60.1581 17.8582 59.6059 17.9079 58.981 17.9079H55.2973V12.9395ZM57.0338 14.1089V16.7101H58.843C60.3324 16.7101 61.0735 16.2848 61.0735 15.4272V15.3918C61.0735 14.5342 60.3324 14.1089 58.843 14.1089H57.0338Z" fill="white"/>
<path d="M67.4446 12.9395H71.1211C71.6369 12.9395 72.1092 12.9678 72.5233 13.0316C72.9447 13.0954 73.2935 13.1805 73.5696 13.301C73.853 13.4214 74.0927 13.549 74.2889 13.6979C74.4851 13.8396 74.6376 14.0026 74.7466 14.1869C74.8484 14.3712 74.9283 14.5484 74.9719 14.7256C75.0227 14.9027 75.0445 15.087 75.0445 15.2855V15.491C75.0445 15.7249 75.0155 15.9446 74.9501 16.1502C74.892 16.3628 74.7757 16.5754 74.6013 16.7951C74.4197 17.0219 74.1944 17.2133 73.9184 17.3692C73.635 17.5251 73.2572 17.6527 72.7776 17.7519C72.3054 17.8582 71.7532 17.9079 71.1283 17.9079H67.4446V12.9395ZM69.1811 14.1089V16.7101H70.9903C72.4797 16.7101 73.2208 16.2848 73.2208 15.4272V15.3918C73.2208 14.5342 72.4797 14.1089 70.9903 14.1089H69.1811Z" fill="white"/>
<path d="M75.6966 12.9395H81.5454V14.0664H77.4113V14.8035H81.451V15.9375H77.4113V16.7526H81.6254V17.9079H75.6966V12.9395Z" fill="white"/>
<path d="M85.4462 18C84.894 18 84.4072 17.9575 84.0003 17.8724C83.5862 17.7874 83.2665 17.6881 83.0413 17.5677C82.8233 17.4472 82.6416 17.2983 82.5109 17.1282C82.3801 16.9581 82.2929 16.8022 82.2566 16.6675C82.2202 16.5329 82.2057 16.384 82.2057 16.2281V16.1572H84.0149C84.0512 16.6817 84.4435 16.944 85.5043 16.944H85.9039C86.2527 16.944 86.398 16.9227 86.6305 16.8943C86.8557 16.866 87.0229 16.8306 87.1246 16.7739C87.2336 16.7172 87.299 16.6675 87.3353 16.6108C87.3716 16.5541 87.3861 16.4904 87.3861 16.4124C87.3861 16.3061 87.3571 16.221 87.2989 16.1572C87.2408 16.1005 87.0955 16.0438 86.8775 15.9942C86.6596 15.9517 86.3471 15.9234 85.933 15.9163L85.3881 15.9021L84.9812 15.895C83.1793 15.8525 82.2784 15.3634 82.2784 14.4421V14.3783C82.2784 14.2223 82.3002 14.0735 82.3438 13.9388C82.3873 13.8042 82.4745 13.6695 82.6126 13.5278C82.7434 13.3931 82.9177 13.2797 83.1357 13.1876C83.3537 13.0954 83.6443 13.0175 84.0149 12.9608C84.3781 12.897 84.8068 12.8686 85.2936 12.8686H85.8095C86.3108 12.8686 86.7613 12.897 87.1464 12.9608C87.5387 13.0245 87.8439 13.1025 88.0764 13.2017C88.3089 13.301 88.4978 13.4214 88.6431 13.5632C88.7884 13.7049 88.8901 13.8467 88.941 13.9814C88.9991 14.1231 89.0282 14.272 89.0282 14.435V14.4988H87.2263C87.2118 14.4491 87.1972 14.3995 87.1827 14.3641C87.1682 14.3287 87.1246 14.279 87.0592 14.2153C86.9938 14.1515 86.9139 14.1019 86.8049 14.0593C86.7032 14.0239 86.5433 13.9885 86.3399 13.953C86.1364 13.9247 85.9766 13.9105 85.7005 13.9105H85.4462C85.0248 13.9105 84.7632 13.9317 84.538 13.9743C84.32 14.0239 84.182 14.0735 84.1384 14.1231C84.0875 14.1727 84.0657 14.2436 84.0657 14.3357C84.0657 14.4208 84.0875 14.4846 84.1456 14.5413C84.1965 14.5909 84.32 14.6405 84.5162 14.6901C84.7124 14.7326 84.9885 14.7539 85.3445 14.761L85.7514 14.7681L86.2745 14.7752C87.3135 14.7893 88.0546 14.9169 88.5123 15.1508C88.9773 15.3847 89.2026 15.7462 89.2026 16.2494V16.3415C89.2026 16.5258 89.1808 16.6888 89.1372 16.8306C89.0936 16.9723 88.9991 17.1211 88.8611 17.2771C88.723 17.4259 88.5414 17.5535 88.3089 17.6527C88.0764 17.759 87.764 17.837 87.3643 17.9008C86.9647 17.9717 86.4925 18 85.9548 18H85.4462Z" fill="white"/>
<path d="M91.6093 12.9608V17.9079H89.8801V12.9608H91.6093Z" fill="white"/>
<path d="M96.0953 17.9929H95.9427C95.3687 17.9929 94.8601 17.9362 94.4097 17.8299C93.9665 17.7165 93.6104 17.5747 93.3416 17.4046C93.08 17.2345 92.8621 17.0361 92.695 16.8093C92.5279 16.5754 92.4116 16.3557 92.3462 16.1502C92.2881 15.9375 92.259 15.7249 92.259 15.5052V15.3209C92.259 15.1012 92.2808 14.8957 92.3317 14.6901C92.3825 14.4917 92.4915 14.272 92.6586 14.0451C92.8257 13.8183 93.0437 13.6199 93.3053 13.4569C93.5668 13.2868 93.9301 13.1521 94.3951 13.0387C94.8529 12.9253 95.3905 12.8757 96.0008 12.8757H96.3205C96.909 12.8757 97.4322 12.9182 97.8827 13.0033C98.3331 13.0954 98.6891 13.2017 98.9434 13.3364C99.1977 13.464 99.4084 13.6199 99.5683 13.7971C99.7354 13.9814 99.8444 14.1444 99.8952 14.2932C99.9534 14.4421 99.9824 14.5909 99.9824 14.7468V14.7539H98.1442C97.9553 14.2861 97.3014 14.0522 96.1752 14.0522C94.7729 14.0522 94.0682 14.4988 94.0682 15.3847V15.4627C94.0682 15.8241 94.2426 16.136 94.584 16.3982C94.9328 16.6605 95.4559 16.788 96.1607 16.788C96.4659 16.788 96.7492 16.7668 97.0035 16.7313C97.2651 16.6888 97.4685 16.6392 97.6211 16.5825C97.7737 16.5258 97.9045 16.462 98.0134 16.3911C98.1152 16.3273 98.1951 16.2636 98.2387 16.2139C98.275 16.1572 98.2968 16.1147 98.2968 16.0864V16.0722H96.1244V15.1366H100.026V17.9079H98.7763C98.7763 17.9079 98.7691 17.4613 98.7618 17.1353C98.2023 17.7094 97.3159 17.9929 96.0953 17.9929Z" fill="white"/>
<path d="M100.814 12.9537H102.747L106.285 16.0722V12.9537H108V17.9149H106.285L102.522 14.6263V17.9149H100.814V12.9537Z" fill="white"/>
</g>
</g>
</svg>
