<svg width="291" height="289" viewBox="0 0 291 289" fill="none" xmlns="http://www.w3.org/2000/svg">
<path d="M151.487 22.6294C150.743 24.3589 149.389 28.8352 149.383 29.5638C149.403 31.4967 145.266 40.2702 142.489 44.1778C138.72 49.5312 133.458 53.3899 127.892 54.9206C126.368 55.3486 123.118 55.6174 121.098 55.478C119.471 55.3645 118.02 54.6339 117.264 53.5197L116.613 52.5827L117.323 47.9791C117.932 44.0331 118.161 43.0619 118.942 41.2616C122.586 32.9378 130.466 27.4078 143.847 23.8537C146.279 23.2144 149.061 22.5401 150.016 22.3643L151.735 22.0529L151.487 22.6294Z" fill="url(#paint0_linear_60_9458)"/>
<path d="M110.528 26.1968C112.794 33.1624 113.707 37.3836 114.071 42.5909C114.333 45.8752 113.557 52.9682 112.718 55.4869C110.856 60.8531 108.891 64.1394 106.019 66.5946C103.697 68.5851 101.817 69.2555 100.332 68.5704C98.7004 67.8041 96.4796 63.6367 95.5352 59.6178C94.6406 55.7913 94.6934 51.8395 95.6953 45.8599C96.5623 40.5835 98.913 35.3142 103.068 29.1771C104.608 26.9275 108.471 21.8272 108.927 21.4483C108.956 21.4281 109.689 23.5543 110.528 26.1968ZM112.932 53.7567C112.977 53.9744 113.066 53.9138 113.109 53.6355C113.178 53.3624 113.124 53.1953 113.031 53.2812C112.943 53.3418 112.882 53.5644 112.932 53.7567Z" fill="url(#paint1_linear_60_9458)"/>
<path d="M140.705 54.5383C139.605 56.5102 138.229 59.7569 138.51 59.6561C139.216 59.3787 138.036 62.5599 136.38 65.3861C132.736 71.6505 129.056 76.0831 125.117 78.9266C122.968 80.4821 119.133 82.4857 118.736 82.303C118.641 82.232 118.511 82.3887 118.472 82.6417C118.437 82.8693 117.91 85.4239 117.278 88.3224C116.649 91.1956 116.07 94.2612 115.967 95.101C115.864 95.9408 115.726 96.4871 115.621 96.3099C115.546 96.1124 115.353 96.6738 115.195 97.5288C114.888 99.3449 112.979 104.154 111.689 106.505C111.18 107.395 109.804 109.443 108.63 111.035C105.494 115.21 102.931 116.867 97.1226 118.427C94.1035 119.263 92.9683 119.403 91.5274 119.118C90.0866 118.833 89.0225 117.996 88.6382 116.877C88.3296 115.956 88.6452 111.848 89.4122 107.047C90.3806 101.113 93.3948 96.1835 98.8984 91.6168C101.42 89.5355 103.945 87.9501 108.298 85.6841C112.27 83.6554 112.622 83.4383 111.736 83.6799C110.791 83.962 106.027 83.0447 105.065 82.4109C104.197 81.8481 103.661 80.8556 103.728 79.9044C103.753 79.5705 103.649 79.2111 103.503 79.1299C103.118 78.8713 104.365 73.5398 105.377 71.1073C109.571 61.2764 120.069 55.6134 137.534 53.7801C139.259 53.6003 140.788 53.486 140.942 53.5166C141.148 53.5573 141.071 53.881 140.705 54.5383Z" fill="url(#paint2_linear_60_9458)"/>
<path d="M87.413 56.2369C92.9419 66.1164 95.5045 73.7402 95.495 80.3334C95.4782 83.5363 94.1276 90.2289 92.8992 93.0355C90.7536 98.0065 87.9487 100.892 85.7618 100.459C83.2442 99.9343 79.2117 94.1048 77.7186 88.8303C77.0546 86.4309 76.6107 82.4329 76.8137 80.2574C76.8809 79.3062 77.0605 77.2825 77.1878 75.7697C77.6479 69.8653 79.5372 63.462 82.897 56.4635C83.8797 54.3902 84.768 52.585 84.8982 52.4283C85.0285 52.2717 85.999 53.7151 87.413 56.2369Z" fill="url(#paint3_linear_60_9458)"/>
<path d="M68.6335 89.4554C74.6948 94.8525 77.4093 97.7101 80.5127 102C83.8561 106.624 85.6854 110.923 86.3467 115.746C86.5937 117.411 86.5444 118.418 85.9638 122.526C85.0031 129.269 84.0866 131.773 82.2761 132.509C81.0348 132.993 78.6966 132.165 76.3406 130.421C69.2805 125.139 65.4596 117.423 64.5238 106.472C64.386 104.958 64.3465 103.152 64.4222 102.489C64.498 101.827 64.4474 101.295 64.307 101.346C64.1924 101.401 64.233 100.966 64.4038 100.374C64.6004 99.7875 64.6332 99.403 64.503 99.5596C64.347 99.7112 64.2909 99.3873 64.3884 98.7549C64.4782 98.1732 64.6695 96.0735 64.7898 94.0902C65.1704 88.0137 65.3101 86.764 65.512 86.8301C65.6149 86.8505 67.0221 88.0415 68.6335 89.4554Z" fill="url(#paint4_linear_60_9458)"/>
<path d="M112.582 110.514C112.566 110.615 112.623 112.477 112.741 114.638C113.009 120.635 112.821 124.429 112.044 129.124C111.663 131.421 111.247 133.945 111.123 134.754C111.002 135.539 110.864 136.085 110.807 135.943C110.749 135.801 110.578 136.393 110.42 137.248C110.109 139.089 108.487 142.73 107.04 144.894C104.734 148.322 101.138 151.181 96.9437 152.931C95.3289 153.602 94.7535 153.722 93.5068 153.554C92.1018 153.38 91.9553 153.299 91.15 152.331C90.6838 151.743 90.1693 150.781 89.9979 150.174C89.6589 148.934 89.5113 144.734 89.7618 143.454C89.8616 142.978 90.0085 141.339 90.1178 139.771C90.5797 131.964 94.0735 125.644 101.894 118.434C104.37 116.135 112.63 110.028 112.582 110.514Z" fill="url(#paint5_linear_60_9458)"/>
<path d="M59.8226 123.371C74.7131 128.77 82.1474 134.204 86.132 142.579C87.6762 145.804 88.7062 150.987 88.602 154.929C88.569 156.173 88.5238 156.295 87.9484 156.415C87.5944 156.476 87.4501 156.551 87.6045 156.582C88.1152 156.709 87.2386 158.438 86.4245 158.903C86.0175 159.135 85.2386 159.372 84.6788 159.391C83.4188 159.481 80.5512 158.991 79.5829 158.565C79.1611 158.377 79.6803 158.792 80.6868 159.487C84.8117 162.311 88.3891 166.278 90.2747 170.04C91.4111 172.298 92.5225 175.751 92.9315 178.256C93.455 181.566 93.4612 181.697 92.8164 181.752C92.4921 181.792 92.34 181.919 92.4788 182.05C92.8771 182.39 91.7947 184.078 90.7732 184.684C90.2734 185.002 89.91 185.295 89.9576 185.331C89.9794 185.361 90.9298 185.732 92.0346 186.133C99.5402 188.871 104.594 193.234 107.807 199.736C108.781 201.675 110.443 206.201 110.217 206.286C110.162 206.302 109.682 206.493 109.146 206.7C108.61 206.907 108.314 207.109 108.468 207.139C108.931 207.231 108.669 208.587 108.095 209.385C107.466 210.199 106.859 210.522 105.643 210.672C105.101 210.748 104.957 210.823 105.329 210.819C105.697 210.839 107.345 210.983 108.989 211.153C119.223 212.189 126.454 216.879 131.451 225.741L132.68 227.913L131.426 228.655C130.726 229.064 130.325 229.428 130.476 229.484C130.99 229.586 130.593 231.305 129.886 232.104C128.666 233.479 124.503 234.687 120.499 234.859C118.683 234.943 117.377 234.814 114.573 234.259C110.482 233.449 108.225 232.611 104.301 230.374C99.135 227.422 90.9399 220.56 90.2353 218.596C89.8511 217.477 90.1553 216.364 90.8438 216.37C91.1346 216.375 90.6723 215.763 89.5521 214.602C88.5885 213.629 87.8963 212.789 88.0148 212.708C88.1669 212.582 96.9931 211.227 98.3123 211.098C98.5002 211.083 97.3541 210.777 95.7589 210.462C88.3389 208.888 81.614 204.011 74.1576 194.766C70.7517 190.547 69.8748 188.496 71.1451 187.653C71.5638 187.345 71.4882 187.148 70.1427 185.213C69.3429 184.038 68.7513 183.06 68.8105 183.02C68.8698 182.98 70.9313 183.023 73.4044 183.148C78.0162 183.331 80.119 183.278 78.3359 182.977C77.8432 182.906 77.1641 182.667 76.8312 182.419C76.4944 182.196 75.4365 181.491 74.4518 180.827C69.1325 177.323 64.5347 171.72 60.0316 163.269C58.6551 160.677 57.7556 158.257 57.8805 157.447C57.9156 157.22 58.1246 156.896 58.3616 156.734C58.7172 156.492 58.6214 156.082 57.5956 153.793L56.4405 151.14L61.6401 152.327C64.5061 152.998 68.1977 153.99 69.8646 154.529C72.747 155.438 73.9266 155.698 72.3268 155.068C70.6061 154.363 65.7323 149.175 63.5566 145.746C59.8087 139.79 56.3644 131.523 56.5246 128.765C56.5918 127.814 56.6644 127.516 56.8764 127.688C57.2709 128.053 57.2467 127.866 56.2827 124.833C55.7808 123.274 55.3981 121.973 55.4059 121.923C55.4293 121.771 55.7303 121.883 59.8226 123.371Z" fill="url(#paint6_linear_60_9458)"/>
<path d="M114.794 146.534C115.498 151.079 115.861 154.748 115.999 158.321C116.097 161.468 114.834 170.341 113.793 173.654C112.16 178.909 109.055 182.882 104.175 185.983C101.905 187.462 100.624 187.86 99.2089 187.58C98.3598 187.412 98.0784 187.174 97.1297 185.761C95.6174 183.532 94.6736 180.712 94.7043 178.451C94.7422 174.939 94.8273 174.044 95.0222 174.499C95.1633 174.788 95.2124 174.641 95.1517 174.003C95.1229 173.502 95.4086 171.135 95.7715 168.782C96.3981 164.892 96.551 164.245 97.5454 162.096C99.9772 156.816 104.304 151.286 110.432 145.592C112.284 143.9 113.876 142.52 113.978 142.541C114.081 142.561 114.441 144.353 114.794 146.534Z" fill="url(#paint7_linear_60_9458)"/>
<path d="M125.446 166.004C129.104 176.322 130.359 181.94 130.461 187.982C130.517 191.746 129.191 198.965 127.941 201.741C125.242 207.724 119.715 212.781 117.167 211.599C115.582 210.868 113.44 207.394 112.348 203.815C111.625 201.456 111.109 196.896 111.445 195.92C111.581 195.556 111.598 195.273 111.483 195.328C111.373 195.359 111.362 194.913 111.422 194.352C111.512 193.77 111.658 192.131 111.748 190.689C112.183 184.779 115.011 177.962 120.258 170.243C121.862 167.927 124.663 164.207 124.791 164.233C124.817 164.238 125.119 165.027 125.446 166.004Z" fill="url(#paint8_linear_60_9458)"/>
<path d="M141.002 190.121C145.157 195.845 147.686 200.073 149.315 204.123C151.778 210.163 152.36 216.013 150.966 220.925C150.609 222.209 150.352 223.358 150.432 223.53C150.648 224.016 149.077 228.188 147.967 230.054C145.639 233.972 143.734 234.116 140.289 230.671C138.336 228.72 136.193 225.767 135.133 223.524C133.246 219.605 131.994 213.284 132.42 210.005C132.515 209.216 132.531 208.594 132.446 208.629C132.195 208.71 132.63 204.86 133.51 199.325C134.166 195.076 134.64 193.032 135.565 189.957C136.243 187.797 136.919 185.82 137.065 185.562C137.286 185.162 137.829 185.765 141.002 190.121Z" fill="url(#paint9_linear_60_9458)"/>
<path d="M159.75 213.828C174.84 220.517 182.285 227.257 184.968 236.677C185.679 239.112 185.911 240.878 185.991 243.97C186.03 246.637 185.832 248.266 185.471 248.195C185.317 248.164 185.171 248.422 185.117 248.776C184.949 249.864 184.039 250.778 182.969 251.01C181.686 251.251 178.444 250.609 176.078 249.619C167.112 245.862 160.946 237.707 156.75 223.999C155.751 220.673 155.551 219.565 155.837 218.397C155.89 218.225 156.031 218.174 156.195 218.311C156.356 218.473 156.419 218.407 156.377 218.164C156.331 217.947 156.005 216.449 155.618 214.834C155.26 213.199 155.018 211.848 155.048 211.828C155.103 211.812 157.22 212.701 159.75 213.828Z" fill="url(#paint10_linear_60_9458)"/>
<path d="M147.241 234.759C151.291 236.525 154.789 238.938 157.639 241.953L159.142 243.554L157.92 244.772C156.955 245.701 156.712 246.07 156.863 246.465C157.319 247.807 156.424 249.141 153.965 250.818C150.29 253.323 145.344 254.794 140.432 254.838C137.221 254.853 130.719 253.514 126.815 252.011C120.584 249.604 115.282 246.677 114.822 245.361C114.603 244.718 115.051 243.19 115.508 243.15C115.781 243.1 115.396 242.842 112.968 241.396L112.264 240.97L115.381 239.502C124.391 235.239 130.282 233.486 136.592 233.145C139.908 232.968 144.883 233.718 147.241 234.759Z" fill="url(#paint11_linear_60_9458)"/>
<path d="M178.142 251.878C180.559 252.878 183.731 254.836 185.796 256.574C188.709 259.002 188.598 258.693 187.07 260.346C186.334 261.164 185.861 261.827 186.015 261.857C186.144 261.883 186.191 262.439 186.089 263.097C185.851 264.64 184.677 265.893 181.7 267.832C177.812 270.347 173.618 271.576 168.499 271.761C166.367 271.834 165.33 271.681 160.518 270.728C155.711 269.75 154.513 269.435 151.361 268.211C146.833 266.454 145.235 265.642 144.58 264.73C144.034 263.971 144.032 262.954 144.591 262.256C144.885 261.897 144.771 261.771 143.591 261.172C142.854 260.791 142.136 260.467 141.981 260.436C141.389 260.319 141.927 259.93 145.556 257.886C153.914 253.206 159.05 251.2 164.767 250.403C169.35 249.746 174.459 250.315 178.142 251.878Z" fill="url(#paint12_linear_60_9458)"/>
<defs>
<linearGradient id="paint0_linear_60_9458" x1="163.159" y1="271.251" x2="167.494" y2="249.356" gradientUnits="userSpaceOnUse">
<stop stop-color="#C08D22"/>
<stop offset="0.515625" stop-color="#B58113" stop-opacity="0.5"/>
<stop offset="1" stop-color="#C1871F"/>
</linearGradient>
<linearGradient id="paint1_linear_60_9458" x1="163.159" y1="271.251" x2="167.494" y2="249.356" gradientUnits="userSpaceOnUse">
<stop stop-color="#C08D22"/>
<stop offset="0.515625" stop-color="#B58113" stop-opacity="0.5"/>
<stop offset="1" stop-color="#C1871F"/>
</linearGradient>
<linearGradient id="paint2_linear_60_9458" x1="163.159" y1="271.251" x2="167.494" y2="249.356" gradientUnits="userSpaceOnUse">
<stop stop-color="#C08D22"/>
<stop offset="0.515625" stop-color="#B58113" stop-opacity="0.5"/>
<stop offset="1" stop-color="#C1871F"/>
</linearGradient>
<linearGradient id="paint3_linear_60_9458" x1="163.159" y1="271.251" x2="167.494" y2="249.356" gradientUnits="userSpaceOnUse">
<stop stop-color="#C08D22"/>
<stop offset="0.515625" stop-color="#B58113" stop-opacity="0.5"/>
<stop offset="1" stop-color="#C1871F"/>
</linearGradient>
<linearGradient id="paint4_linear_60_9458" x1="163.159" y1="271.251" x2="167.494" y2="249.356" gradientUnits="userSpaceOnUse">
<stop stop-color="#C08D22"/>
<stop offset="0.515625" stop-color="#B58113" stop-opacity="0.5"/>
<stop offset="1" stop-color="#C1871F"/>
</linearGradient>
<linearGradient id="paint5_linear_60_9458" x1="163.159" y1="271.251" x2="167.494" y2="249.356" gradientUnits="userSpaceOnUse">
<stop stop-color="#C08D22"/>
<stop offset="0.515625" stop-color="#B58113" stop-opacity="0.5"/>
<stop offset="1" stop-color="#C1871F"/>
</linearGradient>
<linearGradient id="paint6_linear_60_9458" x1="163.159" y1="271.251" x2="167.494" y2="249.356" gradientUnits="userSpaceOnUse">
<stop stop-color="#C08D22"/>
<stop offset="0.515625" stop-color="#B58113" stop-opacity="0.5"/>
<stop offset="1" stop-color="#C1871F"/>
</linearGradient>
<linearGradient id="paint7_linear_60_9458" x1="163.159" y1="271.251" x2="167.494" y2="249.356" gradientUnits="userSpaceOnUse">
<stop stop-color="#C08D22"/>
<stop offset="0.515625" stop-color="#B58113" stop-opacity="0.5"/>
<stop offset="1" stop-color="#C1871F"/>
</linearGradient>
<linearGradient id="paint8_linear_60_9458" x1="163.159" y1="271.251" x2="167.494" y2="249.356" gradientUnits="userSpaceOnUse">
<stop stop-color="#C08D22"/>
<stop offset="0.515625" stop-color="#B58113" stop-opacity="0.5"/>
<stop offset="1" stop-color="#C1871F"/>
</linearGradient>
<linearGradient id="paint9_linear_60_9458" x1="163.159" y1="271.251" x2="167.494" y2="249.356" gradientUnits="userSpaceOnUse">
<stop stop-color="#C08D22"/>
<stop offset="0.515625" stop-color="#B58113" stop-opacity="0.5"/>
<stop offset="1" stop-color="#C1871F"/>
</linearGradient>
<linearGradient id="paint10_linear_60_9458" x1="163.159" y1="271.251" x2="167.494" y2="249.356" gradientUnits="userSpaceOnUse">
<stop stop-color="#C08D22"/>
<stop offset="0.515625" stop-color="#B58113" stop-opacity="0.5"/>
<stop offset="1" stop-color="#C1871F"/>
</linearGradient>
<linearGradient id="paint11_linear_60_9458" x1="163.159" y1="271.251" x2="167.494" y2="249.356" gradientUnits="userSpaceOnUse">
<stop stop-color="#C08D22"/>
<stop offset="0.515625" stop-color="#B58113" stop-opacity="0.5"/>
<stop offset="1" stop-color="#C1871F"/>
</linearGradient>
<linearGradient id="paint12_linear_60_9458" x1="163.159" y1="271.251" x2="167.494" y2="249.356" gradientUnits="userSpaceOnUse">
<stop stop-color="#C08D22"/>
<stop offset="0.515625" stop-color="#B58113" stop-opacity="0.5"/>
<stop offset="1" stop-color="#C1871F"/>
</linearGradient>
</defs>
</svg>
