<svg width="1737" height="50" viewBox="0 0 1737 50" fill="none" xmlns="http://www.w3.org/2000/svg">
<rect width="1737" height="50" fill="#FACD33"/>
<path d="M335.521 20.3311C335.521 21.2923 335.381 22.1789 335.101 22.9909C334.821 23.7935 334.369 24.4887 333.743 25.0767C333.127 25.6553 332.325 26.1079 331.336 26.4346C330.346 26.7612 329.142 26.9245 327.724 26.9245H319.101V33H313.907V13.7657H327.724C329.142 13.7657 330.346 13.929 331.336 14.2556C332.325 14.5729 333.127 15.0255 333.743 15.6135C334.369 16.1921 334.821 16.8827 335.101 17.6853C335.381 18.4879 335.521 19.3698 335.521 20.3311ZM330.272 20.4151C330.272 19.9671 330.206 19.5845 330.076 19.2672C329.954 18.9405 329.749 18.6746 329.46 18.4692C329.17 18.2639 328.792 18.1146 328.326 18.0213C327.859 17.9186 327.285 17.8673 326.604 17.8673H319.101V22.8229H326.604C327.285 22.8229 327.859 22.7855 328.326 22.7109C328.792 22.6269 329.17 22.4916 329.46 22.3049C329.749 22.1089 329.954 21.857 330.076 21.549C330.206 21.241 330.272 20.863 330.272 20.4151ZM365.181 23.3968C365.181 25.0487 364.878 26.5092 364.271 27.7784C363.665 29.0383 362.797 30.0929 361.668 30.9422C360.538 31.7914 359.167 32.4354 357.552 32.874C355.947 33.3033 354.141 33.518 352.134 33.518C350.128 33.518 348.313 33.3033 346.689 32.874C345.074 32.4354 343.698 31.7914 342.559 30.9422C341.421 30.0929 340.543 29.0383 339.928 27.7784C339.312 26.5092 339.004 25.0487 339.004 23.3968C339.004 21.745 339.312 20.2891 339.928 19.0292C340.543 17.76 341.421 16.7007 342.559 15.8515C343.698 15.0022 345.074 14.3629 346.689 13.9336C348.313 13.495 350.128 13.2757 352.134 13.2757C354.141 13.2757 355.947 13.495 357.552 13.9336C359.167 14.3629 360.538 15.0022 361.668 15.8515C362.797 16.7007 363.665 17.76 364.271 19.0292C364.878 20.2891 365.181 21.745 365.181 23.3968ZM359.932 23.3968C359.932 22.6782 359.815 21.9643 359.582 21.255C359.358 20.5364 358.952 19.8925 358.364 19.3232C357.785 18.7539 356.992 18.2919 355.984 17.9373C354.976 17.5827 353.693 17.4053 352.134 17.4053C351.089 17.4053 350.17 17.4893 349.377 17.6573C348.583 17.816 347.898 18.04 347.319 18.3293C346.74 18.6186 346.255 18.9592 345.863 19.3512C345.471 19.7338 345.158 20.1491 344.925 20.5971C344.692 21.0357 344.524 21.4977 344.421 21.9829C344.328 22.4589 344.281 22.9302 344.281 23.3968C344.281 23.8728 344.328 24.3534 344.421 24.8387C344.524 25.324 344.692 25.7906 344.925 26.2386C345.158 26.6772 345.471 27.0878 345.863 27.4705C346.255 27.8531 346.74 28.1891 347.319 28.4784C347.898 28.7584 348.583 28.9823 349.377 29.1503C350.17 29.309 351.089 29.3883 352.134 29.3883C353.693 29.3883 354.976 29.211 355.984 28.8564C356.992 28.5017 357.785 28.0398 358.364 27.4705C358.952 26.9012 359.358 26.2619 359.582 25.5526C359.815 24.834 359.932 24.1154 359.932 23.3968ZM370.372 33V13.7657H375.565V28.7864H389.606V33H370.372ZM394.236 33V13.7657H399.43V33H394.236ZM427.116 31.6841C426.444 31.9641 425.768 32.2161 425.086 32.44C424.405 32.664 423.701 32.8553 422.973 33.014C422.245 33.182 421.475 33.308 420.663 33.392C419.86 33.476 418.997 33.518 418.073 33.518C416.113 33.518 414.307 33.308 412.656 32.888C411.013 32.468 409.594 31.8381 408.4 30.9982C407.215 30.1489 406.291 29.0943 405.628 27.8344C404.966 26.5652 404.634 25.086 404.634 23.3968C404.634 21.7076 404.966 20.2331 405.628 18.9732C406.291 17.704 407.215 16.6494 408.4 15.8095C409.594 14.9602 411.013 14.3256 412.656 13.9056C414.307 13.4857 416.113 13.2757 418.073 13.2757C418.997 13.2757 419.86 13.3177 420.663 13.4017C421.475 13.4857 422.245 13.6117 422.973 13.7797C423.701 13.9383 424.405 14.1296 425.086 14.3536C425.768 14.5776 426.444 14.8296 427.116 15.1095V19.7851C426.584 19.4958 426.024 19.2112 425.436 18.9312C424.848 18.6419 424.2 18.3853 423.491 18.1613C422.781 17.928 422.002 17.7413 421.153 17.6013C420.304 17.452 419.347 17.3773 418.283 17.3773C416.65 17.3773 415.292 17.5453 414.209 17.8813C413.136 18.2173 412.278 18.6652 411.634 19.2252C410.99 19.7851 410.537 20.4291 410.276 21.157C410.014 21.8756 409.884 22.6222 409.884 23.3968C409.884 23.9101 409.94 24.4187 410.052 24.9227C410.164 25.4173 410.35 25.8886 410.612 26.3366C410.873 26.7752 411.214 27.1812 411.634 27.5545C412.054 27.9278 412.576 28.2497 413.201 28.5204C413.827 28.791 414.555 29.0057 415.385 29.1643C416.225 29.3137 417.191 29.3883 418.283 29.3883C419.347 29.3883 420.304 29.323 421.153 29.1923C422.002 29.0523 422.781 28.8704 423.491 28.6464C424.2 28.4224 424.848 28.1704 425.436 27.8904C426.024 27.6011 426.584 27.3072 427.116 27.0085V31.6841ZM432.419 33V13.7657H451.891V17.8673H437.752V21.045H451.163V25.1467H437.752V28.8984H452.087V33H432.419Z" fill="black"/>
<rect x="494.5" y="23.5" width="100" height="3" fill="black"/>
<path d="M659.521 20.3311C659.521 21.2923 659.381 22.1789 659.101 22.9909C658.821 23.7935 658.369 24.4887 657.743 25.0767C657.127 25.6553 656.325 26.1079 655.336 26.4346C654.346 26.7612 653.142 26.9245 651.724 26.9245H643.101V33H637.907V13.7657H651.724C653.142 13.7657 654.346 13.929 655.336 14.2556C656.325 14.5729 657.127 15.0255 657.743 15.6135C658.369 16.1921 658.821 16.8827 659.101 17.6853C659.381 18.4879 659.521 19.3698 659.521 20.3311ZM654.272 20.4151C654.272 19.9671 654.206 19.5845 654.076 19.2672C653.954 18.9405 653.749 18.6746 653.46 18.4692C653.17 18.2639 652.792 18.1146 652.326 18.0213C651.859 17.9186 651.285 17.8673 650.604 17.8673H643.101V22.8229H650.604C651.285 22.8229 651.859 22.7855 652.326 22.7109C652.792 22.6269 653.17 22.4916 653.46 22.3049C653.749 22.1089 653.954 21.857 654.076 21.549C654.206 21.241 654.272 20.863 654.272 20.4151ZM689.181 23.3968C689.181 25.0487 688.878 26.5092 688.271 27.7784C687.665 29.0383 686.797 30.0929 685.668 30.9422C684.538 31.7914 683.167 32.4354 681.552 32.874C679.947 33.3033 678.141 33.518 676.134 33.518C674.128 33.518 672.313 33.3033 670.689 32.874C669.074 32.4354 667.698 31.7914 666.559 30.9422C665.421 30.0929 664.543 29.0383 663.928 27.7784C663.312 26.5092 663.004 25.0487 663.004 23.3968C663.004 21.745 663.312 20.2891 663.928 19.0292C664.543 17.76 665.421 16.7007 666.559 15.8515C667.698 15.0022 669.074 14.3629 670.689 13.9336C672.313 13.495 674.128 13.2757 676.134 13.2757C678.141 13.2757 679.947 13.495 681.552 13.9336C683.167 14.3629 684.538 15.0022 685.668 15.8515C686.797 16.7007 687.665 17.76 688.271 19.0292C688.878 20.2891 689.181 21.745 689.181 23.3968ZM683.932 23.3968C683.932 22.6782 683.815 21.9643 683.582 21.255C683.358 20.5364 682.952 19.8925 682.364 19.3232C681.785 18.7539 680.992 18.2919 679.984 17.9373C678.976 17.5827 677.693 17.4053 676.134 17.4053C675.089 17.4053 674.17 17.4893 673.377 17.6573C672.583 17.816 671.898 18.04 671.319 18.3293C670.74 18.6186 670.255 18.9592 669.863 19.3512C669.471 19.7338 669.158 20.1491 668.925 20.5971C668.692 21.0357 668.524 21.4977 668.421 21.9829C668.328 22.4589 668.281 22.9302 668.281 23.3968C668.281 23.8728 668.328 24.3534 668.421 24.8387C668.524 25.324 668.692 25.7906 668.925 26.2386C669.158 26.6772 669.471 27.0878 669.863 27.4705C670.255 27.8531 670.74 28.1891 671.319 28.4784C671.898 28.7584 672.583 28.9823 673.377 29.1503C674.17 29.309 675.089 29.3883 676.134 29.3883C677.693 29.3883 678.976 29.211 679.984 28.8564C680.992 28.5017 681.785 28.0398 682.364 27.4705C682.952 26.9012 683.358 26.2619 683.582 25.5526C683.815 24.834 683.932 24.1154 683.932 23.3968ZM694.372 33V13.7657H699.565V28.7864H713.606V33H694.372ZM718.236 33V13.7657H723.43V33H718.236ZM751.116 31.6841C750.444 31.9641 749.768 32.2161 749.086 32.44C748.405 32.664 747.701 32.8553 746.973 33.014C746.245 33.182 745.475 33.308 744.663 33.392C743.86 33.476 742.997 33.518 742.073 33.518C740.113 33.518 738.307 33.308 736.656 32.888C735.013 32.468 733.594 31.8381 732.4 30.9982C731.215 30.1489 730.291 29.0943 729.628 27.8344C728.966 26.5652 728.634 25.086 728.634 23.3968C728.634 21.7076 728.966 20.2331 729.628 18.9732C730.291 17.704 731.215 16.6494 732.4 15.8095C733.594 14.9602 735.013 14.3256 736.656 13.9056C738.307 13.4857 740.113 13.2757 742.073 13.2757C742.997 13.2757 743.86 13.3177 744.663 13.4017C745.475 13.4857 746.245 13.6117 746.973 13.7797C747.701 13.9383 748.405 14.1296 749.086 14.3536C749.768 14.5776 750.444 14.8296 751.116 15.1095V19.7851C750.584 19.4958 750.024 19.2112 749.436 18.9312C748.848 18.6419 748.2 18.3853 747.491 18.1613C746.781 17.928 746.002 17.7413 745.153 17.6013C744.304 17.452 743.347 17.3773 742.283 17.3773C740.65 17.3773 739.292 17.5453 738.209 17.8813C737.136 18.2173 736.278 18.6652 735.634 19.2252C734.99 19.7851 734.537 20.4291 734.276 21.157C734.014 21.8756 733.884 22.6222 733.884 23.3968C733.884 23.9101 733.94 24.4187 734.052 24.9227C734.164 25.4173 734.35 25.8886 734.612 26.3366C734.873 26.7752 735.214 27.1812 735.634 27.5545C736.054 27.9278 736.576 28.2497 737.201 28.5204C737.827 28.791 738.555 29.0057 739.385 29.1643C740.225 29.3137 741.191 29.3883 742.283 29.3883C743.347 29.3883 744.304 29.323 745.153 29.1923C746.002 29.0523 746.781 28.8704 747.491 28.6464C748.2 28.4224 748.848 28.1704 749.436 27.8904C750.024 27.6011 750.584 27.3072 751.116 27.0085V31.6841ZM756.419 33V13.7657H775.891V17.8673H761.752V21.045H775.163V25.1467H761.752V28.8984H776.087V33H756.419Z" fill="black"/>
<rect x="818.5" y="23.5" width="100" height="3" fill="black"/>
<path d="M983.521 20.3311C983.521 21.2923 983.381 22.1789 983.101 22.9909C982.821 23.7935 982.369 24.4887 981.743 25.0767C981.127 25.6553 980.325 26.1079 979.336 26.4346C978.346 26.7612 977.142 26.9245 975.724 26.9245H967.101V33H961.907V13.7657H975.724C977.142 13.7657 978.346 13.929 979.336 14.2556C980.325 14.5729 981.127 15.0255 981.743 15.6135C982.369 16.1921 982.821 16.8827 983.101 17.6853C983.381 18.4879 983.521 19.3698 983.521 20.3311ZM978.272 20.4151C978.272 19.9671 978.206 19.5845 978.076 19.2672C977.954 18.9405 977.749 18.6746 977.46 18.4692C977.17 18.2639 976.792 18.1146 976.326 18.0213C975.859 17.9186 975.285 17.8673 974.604 17.8673H967.101V22.8229H974.604C975.285 22.8229 975.859 22.7855 976.326 22.7109C976.792 22.6269 977.17 22.4916 977.46 22.3049C977.749 22.1089 977.954 21.857 978.076 21.549C978.206 21.241 978.272 20.863 978.272 20.4151ZM1013.18 23.3968C1013.18 25.0487 1012.88 26.5092 1012.27 27.7784C1011.66 29.0383 1010.8 30.0929 1009.67 30.9422C1008.54 31.7914 1007.17 32.4354 1005.55 32.874C1003.95 33.3033 1002.14 33.518 1000.13 33.518C998.128 33.518 996.313 33.3033 994.689 32.874C993.074 32.4354 991.698 31.7914 990.559 30.9422C989.421 30.0929 988.543 29.0383 987.928 27.7784C987.312 26.5092 987.004 25.0487 987.004 23.3968C987.004 21.745 987.312 20.2891 987.928 19.0292C988.543 17.76 989.421 16.7007 990.559 15.8515C991.698 15.0022 993.074 14.3629 994.689 13.9336C996.313 13.495 998.128 13.2757 1000.13 13.2757C1002.14 13.2757 1003.95 13.495 1005.55 13.9336C1007.17 14.3629 1008.54 15.0022 1009.67 15.8515C1010.8 16.7007 1011.66 17.76 1012.27 19.0292C1012.88 20.2891 1013.18 21.745 1013.18 23.3968ZM1007.93 23.3968C1007.93 22.6782 1007.82 21.9643 1007.58 21.255C1007.36 20.5364 1006.95 19.8925 1006.36 19.3232C1005.79 18.7539 1004.99 18.2919 1003.98 17.9373C1002.98 17.5827 1001.69 17.4053 1000.13 17.4053C999.089 17.4053 998.17 17.4893 997.377 17.6573C996.583 17.816 995.898 18.04 995.319 18.3293C994.74 18.6186 994.255 18.9592 993.863 19.3512C993.471 19.7338 993.158 20.1491 992.925 20.5971C992.692 21.0357 992.524 21.4977 992.421 21.9829C992.328 22.4589 992.281 22.9302 992.281 23.3968C992.281 23.8728 992.328 24.3534 992.421 24.8387C992.524 25.324 992.692 25.7906 992.925 26.2386C993.158 26.6772 993.471 27.0878 993.863 27.4705C994.255 27.8531 994.74 28.1891 995.319 28.4784C995.898 28.7584 996.583 28.9823 997.377 29.1503C998.17 29.309 999.089 29.3883 1000.13 29.3883C1001.69 29.3883 1002.98 29.211 1003.98 28.8564C1004.99 28.5017 1005.79 28.0398 1006.36 27.4705C1006.95 26.9012 1007.36 26.2619 1007.58 25.5526C1007.82 24.834 1007.93 24.1154 1007.93 23.3968ZM1018.37 33V13.7657H1023.57V28.7864H1037.61V33H1018.37ZM1042.24 33V13.7657H1047.43V33H1042.24ZM1075.12 31.6841C1074.44 31.9641 1073.77 32.2161 1073.09 32.44C1072.41 32.664 1071.7 32.8553 1070.97 33.014C1070.24 33.182 1069.47 33.308 1068.66 33.392C1067.86 33.476 1067 33.518 1066.07 33.518C1064.11 33.518 1062.31 33.308 1060.66 32.888C1059.01 32.468 1057.59 31.8381 1056.4 30.9982C1055.21 30.1489 1054.29 29.0943 1053.63 27.8344C1052.97 26.5652 1052.63 25.086 1052.63 23.3968C1052.63 21.7076 1052.97 20.2331 1053.63 18.9732C1054.29 17.704 1055.21 16.6494 1056.4 15.8095C1057.59 14.9602 1059.01 14.3256 1060.66 13.9056C1062.31 13.4857 1064.11 13.2757 1066.07 13.2757C1067 13.2757 1067.86 13.3177 1068.66 13.4017C1069.47 13.4857 1070.24 13.6117 1070.97 13.7797C1071.7 13.9383 1072.41 14.1296 1073.09 14.3536C1073.77 14.5776 1074.44 14.8296 1075.12 15.1095V19.7851C1074.58 19.4958 1074.02 19.2112 1073.44 18.9312C1072.85 18.6419 1072.2 18.3853 1071.49 18.1613C1070.78 17.928 1070 17.7413 1069.15 17.6013C1068.3 17.452 1067.35 17.3773 1066.28 17.3773C1064.65 17.3773 1063.29 17.5453 1062.21 17.8813C1061.14 18.2173 1060.28 18.6652 1059.63 19.2252C1058.99 19.7851 1058.54 20.4291 1058.28 21.157C1058.01 21.8756 1057.88 22.6222 1057.88 23.3968C1057.88 23.9101 1057.94 24.4187 1058.05 24.9227C1058.16 25.4173 1058.35 25.8886 1058.61 26.3366C1058.87 26.7752 1059.21 27.1812 1059.63 27.5545C1060.05 27.9278 1060.58 28.2497 1061.2 28.5204C1061.83 28.791 1062.55 29.0057 1063.39 29.1643C1064.23 29.3137 1065.19 29.3883 1066.28 29.3883C1067.35 29.3883 1068.3 29.323 1069.15 29.1923C1070 29.0523 1070.78 28.8704 1071.49 28.6464C1072.2 28.4224 1072.85 28.1704 1073.44 27.8904C1074.02 27.6011 1074.58 27.3072 1075.12 27.0085V31.6841ZM1080.42 33V13.7657H1099.89V17.8673H1085.75V21.045H1099.16V25.1467H1085.75V28.8984H1100.09V33H1080.42Z" fill="black"/>
<rect x="1142.5" y="23.5" width="100" height="3" fill="black"/>
<path d="M1307.52 20.3311C1307.52 21.2923 1307.38 22.1789 1307.1 22.9909C1306.82 23.7935 1306.37 24.4887 1305.74 25.0767C1305.13 25.6553 1304.32 26.1079 1303.34 26.4346C1302.35 26.7612 1301.14 26.9245 1299.72 26.9245H1291.1V33H1285.91V13.7657H1299.72C1301.14 13.7657 1302.35 13.929 1303.34 14.2556C1304.32 14.5729 1305.13 15.0255 1305.74 15.6135C1306.37 16.1921 1306.82 16.8827 1307.1 17.6853C1307.38 18.4879 1307.52 19.3698 1307.52 20.3311ZM1302.27 20.4151C1302.27 19.9671 1302.21 19.5845 1302.08 19.2672C1301.95 18.9405 1301.75 18.6746 1301.46 18.4692C1301.17 18.2639 1300.79 18.1146 1300.33 18.0213C1299.86 17.9186 1299.29 17.8673 1298.6 17.8673H1291.1V22.8229H1298.6C1299.29 22.8229 1299.86 22.7855 1300.33 22.7109C1300.79 22.6269 1301.17 22.4916 1301.46 22.3049C1301.75 22.1089 1301.95 21.857 1302.08 21.549C1302.21 21.241 1302.27 20.863 1302.27 20.4151ZM1337.18 23.3968C1337.18 25.0487 1336.88 26.5092 1336.27 27.7784C1335.66 29.0383 1334.8 30.0929 1333.67 30.9422C1332.54 31.7914 1331.17 32.4354 1329.55 32.874C1327.95 33.3033 1326.14 33.518 1324.13 33.518C1322.13 33.518 1320.31 33.3033 1318.69 32.874C1317.07 32.4354 1315.7 31.7914 1314.56 30.9422C1313.42 30.0929 1312.54 29.0383 1311.93 27.7784C1311.31 26.5092 1311 25.0487 1311 23.3968C1311 21.745 1311.31 20.2891 1311.93 19.0292C1312.54 17.76 1313.42 16.7007 1314.56 15.8515C1315.7 15.0022 1317.07 14.3629 1318.69 13.9336C1320.31 13.495 1322.13 13.2757 1324.13 13.2757C1326.14 13.2757 1327.95 13.495 1329.55 13.9336C1331.17 14.3629 1332.54 15.0022 1333.67 15.8515C1334.8 16.7007 1335.66 17.76 1336.27 19.0292C1336.88 20.2891 1337.18 21.745 1337.18 23.3968ZM1331.93 23.3968C1331.93 22.6782 1331.82 21.9643 1331.58 21.255C1331.36 20.5364 1330.95 19.8925 1330.36 19.3232C1329.79 18.7539 1328.99 18.2919 1327.98 17.9373C1326.98 17.5827 1325.69 17.4053 1324.13 17.4053C1323.09 17.4053 1322.17 17.4893 1321.38 17.6573C1320.58 17.816 1319.9 18.04 1319.32 18.3293C1318.74 18.6186 1318.25 18.9592 1317.86 19.3512C1317.47 19.7338 1317.16 20.1491 1316.93 20.5971C1316.69 21.0357 1316.52 21.4977 1316.42 21.9829C1316.33 22.4589 1316.28 22.9302 1316.28 23.3968C1316.28 23.8728 1316.33 24.3534 1316.42 24.8387C1316.52 25.324 1316.69 25.7906 1316.93 26.2386C1317.16 26.6772 1317.47 27.0878 1317.86 27.4705C1318.25 27.8531 1318.74 28.1891 1319.32 28.4784C1319.9 28.7584 1320.58 28.9823 1321.38 29.1503C1322.17 29.309 1323.09 29.3883 1324.13 29.3883C1325.69 29.3883 1326.98 29.211 1327.98 28.8564C1328.99 28.5017 1329.79 28.0398 1330.36 27.4705C1330.95 26.9012 1331.36 26.2619 1331.58 25.5526C1331.82 24.834 1331.93 24.1154 1331.93 23.3968ZM1342.37 33V13.7657H1347.57V28.7864H1361.61V33H1342.37ZM1366.24 33V13.7657H1371.43V33H1366.24ZM1399.12 31.6841C1398.44 31.9641 1397.77 32.2161 1397.09 32.44C1396.41 32.664 1395.7 32.8553 1394.97 33.014C1394.24 33.182 1393.47 33.308 1392.66 33.392C1391.86 33.476 1391 33.518 1390.07 33.518C1388.11 33.518 1386.31 33.308 1384.66 32.888C1383.01 32.468 1381.59 31.8381 1380.4 30.9982C1379.21 30.1489 1378.29 29.0943 1377.63 27.8344C1376.97 26.5652 1376.63 25.086 1376.63 23.3968C1376.63 21.7076 1376.97 20.2331 1377.63 18.9732C1378.29 17.704 1379.21 16.6494 1380.4 15.8095C1381.59 14.9602 1383.01 14.3256 1384.66 13.9056C1386.31 13.4857 1388.11 13.2757 1390.07 13.2757C1391 13.2757 1391.86 13.3177 1392.66 13.4017C1393.47 13.4857 1394.24 13.6117 1394.97 13.7797C1395.7 13.9383 1396.41 14.1296 1397.09 14.3536C1397.77 14.5776 1398.44 14.8296 1399.12 15.1095V19.7851C1398.58 19.4958 1398.02 19.2112 1397.44 18.9312C1396.85 18.6419 1396.2 18.3853 1395.49 18.1613C1394.78 17.928 1394 17.7413 1393.15 17.6013C1392.3 17.452 1391.35 17.3773 1390.28 17.3773C1388.65 17.3773 1387.29 17.5453 1386.21 17.8813C1385.14 18.2173 1384.28 18.6652 1383.63 19.2252C1382.99 19.7851 1382.54 20.4291 1382.28 21.157C1382.01 21.8756 1381.88 22.6222 1381.88 23.3968C1381.88 23.9101 1381.94 24.4187 1382.05 24.9227C1382.16 25.4173 1382.35 25.8886 1382.61 26.3366C1382.87 26.7752 1383.21 27.1812 1383.63 27.5545C1384.05 27.9278 1384.58 28.2497 1385.2 28.5204C1385.83 28.791 1386.55 29.0057 1387.39 29.1643C1388.23 29.3137 1389.19 29.3883 1390.28 29.3883C1391.35 29.3883 1392.3 29.323 1393.15 29.1923C1394 29.0523 1394.78 28.8704 1395.49 28.6464C1396.2 28.4224 1396.85 28.1704 1397.44 27.8904C1398.02 27.6011 1398.58 27.3072 1399.12 27.0085V31.6841ZM1404.42 33V13.7657H1423.89V17.8673H1409.75V21.045H1423.16V25.1467H1409.75V28.8984H1424.09V33H1404.42Z" fill="black"/>
</svg>
